<svg width="286" height="83" viewBox="0 0 286 83" xmlns="http://www.w3.org/2000/svg">
<path d="M24 36C16.5591 36 6.0844 47.5031 6.0844 54.7687C6.0019 58.0406 8.50877 60 12.7313 60C17.3063 60 20.3344 57.6469 24 57.6469C27.7031 57.6469 30.7407 60 35.2688 60C39.4032 60 41.9944 58.0425 41.9944 54.7734C41.9156 47.5125 31.4438 36 24 36ZM10.2 34.8187C9.22784 31.5731 6.21565 29.4637 3.48565 30.12C0.755647 30.7762 -0.665978 33.9375 0.306584 37.1812C1.27877 40.4344 4.29096 42.5437 7.02096 41.8875C9.75096 41.2312 11.1656 38.0625 10.2 34.8187ZM18.1406 32.8687C21.0347 32.107 22.4878 28.2656 21.375 24.1153C20.2622 19.965 17.0156 17.4497 14.1103 18.1275C11.2163 18.8892 9.76315 22.7306 10.876 26.8809C11.9906 30.9469 15.2344 33.6375 18.1406 32.8687ZM44.5219 30.1219C41.7919 29.55 38.7797 31.575 37.8075 34.8206C36.8353 38.0672 38.2528 41.2303 40.9828 41.8866C43.7128 42.4584 46.7128 40.4334 47.6972 37.1878C48.6656 33.9375 47.1656 30.7781 44.5219 30.1219ZM29.8594 32.8687C32.6813 33.6305 36.0113 30.9469 37.1241 26.8809C38.2369 22.815 36.7842 18.8888 33.8897 18.1275C31.0678 17.3658 27.7378 20.0494 26.625 24.1153C25.5094 28.1812 26.9625 32.1094 29.8594 32.8687Z"/>
<path d="M67.1931 40.264H64.8891V61H60.0891V16.2H64.8891V37.064L67.1291 36.168L78.7771 16.2H84.2811L72.5691 35.528L70.3291 37.576L72.9531 40.136L85.9451 61H79.8651L67.1931 40.264ZM86.8611 45C86.8611 39.24 87.8424 35.016 89.8051 32.328C91.8104 29.5973 94.6477 28.232 98.3171 28.232C102.242 28.232 105.122 29.6187 106.957 32.392C108.834 35.1653 109.773 39.368 109.773 45C109.773 50.8027 108.77 55.048 106.765 57.736C104.76 60.424 101.944 61.768 98.3171 61.768C94.3917 61.768 91.4904 60.3813 89.6131 57.608C87.7784 54.8347 86.8611 50.632 86.8611 45ZM91.6611 45C91.6611 46.8773 91.7677 48.584 91.9811 50.12C92.2371 51.656 92.6211 52.9787 93.1331 54.088C93.6877 55.1973 94.3917 56.072 95.2451 56.712C96.0984 57.3093 97.1224 57.608 98.3171 57.608C100.536 57.608 102.2 56.6267 103.309 54.664C104.418 52.6587 104.973 49.4373 104.973 45C104.973 43.1653 104.845 41.48 104.589 39.944C104.376 38.3653 103.992 37.0213 103.437 35.912C102.925 34.8027 102.242 33.9493 101.389 33.352C100.536 32.712 99.5117 32.392 98.3171 32.392C96.1411 32.392 94.4771 33.3947 93.3251 35.4C92.2157 37.4053 91.6611 40.6053 91.6611 45ZM131.784 33.16H123.912V61H119.304V33.16H111.432V29H131.784V33.16ZM133.486 45C133.486 39.24 134.467 35.016 136.43 32.328C138.435 29.5973 141.273 28.232 144.942 28.232C148.867 28.232 151.747 29.6187 153.582 32.392C155.459 35.1653 156.398 39.368 156.398 45C156.398 50.8027 155.395 55.048 153.39 57.736C151.385 60.424 148.569 61.768 144.942 61.768C141.017 61.768 138.115 60.3813 136.238 57.608C134.403 54.8347 133.486 50.632 133.486 45ZM138.286 45C138.286 46.8773 138.393 48.584 138.606 50.12C138.862 51.656 139.246 52.9787 139.758 54.088C140.313 55.1973 141.017 56.072 141.87 56.712C142.723 57.3093 143.747 57.608 144.942 57.608C147.161 57.608 148.825 56.6267 149.934 54.664C151.043 52.6587 151.598 49.4373 151.598 45C151.598 43.1653 151.47 41.48 151.214 39.944C151.001 38.3653 150.617 37.0213 150.062 35.912C149.55 34.8027 148.867 33.9493 148.014 33.352C147.161 32.712 146.137 32.392 144.942 32.392C142.766 32.392 141.102 33.3947 139.95 35.4C138.841 37.4053 138.286 40.6053 138.286 45ZM177.879 33.16H167.127V61H162.519V29H182.487V61H177.879V33.16ZM188.611 45C188.611 39.24 189.592 35.016 191.555 32.328C193.56 29.5973 196.398 28.232 200.067 28.232C203.992 28.232 206.872 29.6187 208.707 32.392C210.584 35.1653 211.523 39.368 211.523 45C211.523 50.8027 210.52 55.048 208.515 57.736C206.51 60.424 203.694 61.768 200.067 61.768C196.142 61.768 193.24 60.3813 191.363 57.608C189.528 54.8347 188.611 50.632 188.611 45ZM193.411 45C193.411 46.8773 193.518 48.584 193.731 50.12C193.987 51.656 194.371 52.9787 194.883 54.088C195.438 55.1973 196.142 56.072 196.995 56.712C197.848 57.3093 198.872 57.608 200.067 57.608C202.286 57.608 203.95 56.6267 205.059 54.664C206.168 52.6587 206.723 49.4373 206.723 45C206.723 43.1653 206.595 41.48 206.339 39.944C206.126 38.3653 205.742 37.0213 205.187 35.912C204.675 34.8027 203.992 33.9493 203.139 33.352C202.286 32.712 201.262 32.392 200.067 32.392C197.891 32.392 196.227 33.3947 195.075 35.4C193.966 37.4053 193.411 40.6053 193.411 45ZM220.78 29V38.344C220.78 39.4107 220.823 40.3707 220.908 41.224C221.036 42.0773 221.249 42.824 221.548 43.464C221.847 44.0613 222.273 44.5307 222.828 44.872C223.383 45.1707 224.108 45.32 225.004 45.32C226.497 45.32 227.713 45.128 228.652 44.744C229.591 44.36 230.316 43.9333 230.828 43.464V29H235.436V61H230.828V47.56C230.316 47.944 229.505 48.3707 228.396 48.84C227.329 49.2667 225.879 49.48 224.044 49.48C222.807 49.48 221.697 49.3307 220.716 49.032C219.735 48.6907 218.903 48.1573 218.22 47.432C217.58 46.7067 217.068 45.7253 216.684 44.488C216.343 43.2507 216.172 41.6933 216.172 39.816V29H220.78ZM259.659 33.16H251.787V61H247.179V33.16H239.307V29H259.659V33.16ZM263.199 30.92C264.436 30.152 265.93 29.5547 267.679 29.128C269.471 28.7013 271.348 28.488 273.311 28.488C275.103 28.488 276.532 28.7653 277.599 29.32C278.708 29.832 279.562 30.5573 280.159 31.496C280.799 32.392 281.204 33.4373 281.375 34.632C281.588 35.784 281.695 37 281.695 38.28C281.695 40.84 281.631 43.336 281.503 45.768C281.418 48.2 281.375 50.504 281.375 52.68C281.375 54.3013 281.418 55.816 281.503 57.224C281.631 58.5893 281.844 59.8907 282.143 61.128H278.623L277.535 57.352H277.279C276.639 58.4613 275.7 59.4213 274.463 60.232C273.226 61.0427 271.562 61.448 269.471 61.448C267.167 61.448 265.268 60.6587 263.775 59.08C262.324 57.4587 261.599 55.24 261.599 52.424C261.599 50.5893 261.898 49.0533 262.495 47.816C263.135 46.5787 264.01 45.576 265.119 44.808C266.271 44.04 267.615 43.5067 269.151 43.208C270.73 42.8667 272.479 42.696 274.399 42.696C274.826 42.696 275.252 42.696 275.679 42.696C276.106 42.696 276.554 42.7173 277.023 42.76C277.151 41.4373 277.215 40.264 277.215 39.24C277.215 36.808 276.852 35.1013 276.127 34.12C275.402 33.1387 274.079 32.648 272.159 32.648C270.964 32.648 269.663 32.84 268.255 33.224C266.847 33.5653 265.674 34.0133 264.735 34.568L263.199 30.92ZM277.087 46.408C276.66 46.3653 276.234 46.344 275.807 46.344C275.38 46.3013 274.954 46.28 274.527 46.28C273.503 46.28 272.5 46.3653 271.519 46.536C270.538 46.7067 269.663 47.0053 268.895 47.432C268.127 47.8587 267.508 48.4347 267.039 49.16C266.612 49.8853 266.399 50.8027 266.399 51.912C266.399 53.6187 266.804 54.9413 267.615 55.88C268.468 56.8187 269.556 57.288 270.879 57.288C272.671 57.288 274.058 56.8613 275.039 56.008C276.02 55.1547 276.703 54.216 277.087 53.192V46.408Z"/>
</svg>
